# xmcd
#
# Track frame offsets:
#	150
#	19259
#	38557
#	48939
#	63475
#	78396
#	89067
#	103355
#	114372
#	124866
#	138626
#	156017
#	169432
#	180829
#
# Disc length: 2686 seconds
# Revision: 2
# Processed by: cddbd v1.5.2PL0 Copyright (c) Steve Scherf et al.
# Submitted via: dBpowerAMP V12.0
#
DISCID=bc0a7c0e
DTITLE=Caitlin - I Love You Still
DYEAR=2004
DGENRE=Country
TTITLE0=Three Leaf Shamrock
TTITLE1=Galway Shawl
TTITLE2=I Love You Still
TTITLE3=I Couldn't Leave You If I Tried
TTITLE4=The Galway Shawl
TTITLE5=How To Be Alone With You
TTITLE6=Teenage Mothers
TTITLE7=I'll Be All Smiles Tonight
TTITLE8=Any Town In Ireland Would Be Home
TTITLE9=Silver And Gold
TTITLE10=Rosslare Harbour
TTITLE11=Moonlight In The Shannon
TTITLE12=If I Had To Live My Life Over
TTITLE13=A Couple More Years
EXTD=
EXTT0=
EXTT1=
EXTT2=
EXTT3=
EXTT4=
EXTT5=
EXTT6=
EXTT7=
EXTT8=
EXTT9=
EXTT10=
EXTT11=
EXTT12=
EXTT13=
PLAYORDER=
